<?xml version="1.0" encoding="UTF-8"?>
<svg width="66px" height="14px" viewBox="0 0 66 14" version="1.1" xmlns="http://www.w3.org/2000/svg" xmlns:xlink="http://www.w3.org/1999/xlink">
    <!-- Generator: Sketch 62 (91390) - https://sketch.com -->
    <title>Artboard</title>
    <desc>Created with Sketch.</desc>
    <g id="Artboard" stroke="none" stroke-width="1" fill="none" fill-rule="evenodd">
        <g id="Afterpay_Logo_Black" transform="translate(0.000000, 1.000000)" fill="#000000" fill-rule="nonzero">
            <g id="Group">
                <path d="M64.9669565,2.66441441 L62.9812174,1.50495495 L60.9667826,0.327927928 C59.6353043,-0.450900901 57.9709565,0.527027027 57.9709565,2.0963964 L57.9709565,2.35990991 C57.9709565,2.50630631 58.0455652,2.64099099 58.1718261,2.71126126 L59.1073043,3.25585586 C59.3655652,3.40810811 59.6869565,3.21486486 59.6869565,2.91036036 L59.6869565,2.28378378 C59.6869565,1.97342342 60.014087,1.78018018 60.278087,1.93243243 L62.1146087,3.00990991 L63.9453913,4.08153153 C64.2093913,4.23378378 64.2093913,4.62612613 63.9453913,4.77837838 L62.1146087,5.85 L60.278087,6.92747748 C60.014087,7.07972973 59.6869565,6.88648649 59.6869565,6.57612613 L59.6869565,6.26576577 C59.6869565,4.6963964 58.0226087,3.71261261 56.6911304,4.4972973 L54.6766957,5.67432432 L52.6909565,6.83378378 C51.3537391,7.61846847 51.3537391,9.59189189 52.6909565,10.3765766 L54.6766957,11.536036 L56.6911304,12.7130631 C58.0226087,13.4918919 59.6869565,12.513964 59.6869565,10.9445946 L59.6869565,10.6810811 C59.6869565,10.5346847 59.6123478,10.4 59.486087,10.3297297 L58.5506087,9.78513514 C58.2923478,9.63288288 57.9709565,9.82612613 57.9709565,10.1306306 L57.9709565,10.7572072 C57.9709565,11.0675676 57.6438261,11.2608108 57.3798261,11.1085586 L55.5433043,10.0310811 L53.7125217,8.95945946 C53.4485217,8.80720721 53.4485217,8.41486486 53.7125217,8.26261261 L55.5433043,7.19099099 L57.3798261,6.11351351 C57.6438261,5.96126126 57.9709565,6.1545045 57.9709565,6.46486486 L57.9709565,6.77522523 C57.9709565,8.34459459 59.6353043,9.32837838 60.9667826,8.54369369 L62.9812174,7.36666667 L64.9669565,6.20720721 C66.3041739,5.41666667 66.3041739,3.4490991 64.9669565,2.66441441 Z" id="Path"></path>
                <polygon id="Path" points="51.9391304 3.0509009 47.2904348 12.8477477 45.362087 12.8477477 47.1010435 9.18783784 44.3634783 3.0509009 46.3434783 3.0509009 48.0996522 7.16171171 50.0165217 3.0509009"></polygon>
                <g transform="translate(0.000000, 0.175676)">
                    <path d="M5.45791304,6.3536036 C5.45791304,5.18243243 4.62573913,4.36261261 3.60417391,4.36261261 C2.5826087,4.36261261 1.75043478,5.2 1.75043478,6.3536036 C1.75043478,7.4954955 2.5826087,8.34459459 3.60417391,8.34459459 C4.62573913,8.34459459 5.45791304,7.52477477 5.45791304,6.3536036 M5.47513043,9.83198198 L5.47513043,8.93018018 C4.97008696,9.55675676 4.21826087,9.94324324 3.32295652,9.94324324 C1.452,9.94324324 0.0344347826,8.41486486 0.0344347826,6.3536036 C0.0344347826,4.30990991 1.5093913,2.75225225 3.36313043,2.75225225 C4.23547826,2.75225225 4.97008696,3.14459459 5.47513043,3.7536036 L5.47513043,2.87522523 L7.15095652,2.87522523 L7.15095652,9.83198198 L5.47513043,9.83198198 L5.47513043,9.83198198 Z" id="Shape"></path>
                    <path d="M15.3005217,8.28603604 C14.7151304,8.28603604 14.5486957,8.06351351 14.5486957,7.47792793 L14.5486957,4.39189189 L15.6276522,4.39189189 L15.6276522,2.87522523 L14.5486957,2.87522523 L14.5486957,1.17702703 L12.8326957,1.17702703 L12.8326957,2.87522523 L10.6173913,2.87522523 L10.6173913,2.18423423 C10.6173913,1.59864865 10.8354783,1.37612613 11.438087,1.37612613 L11.8168696,1.37612613 L11.8168696,0.0292792793 L10.9904348,0.0292792793 C9.57286957,0.0292792793 8.9013913,0.503603604 8.9013913,1.95 L8.9013913,2.88108108 L7.94869565,2.88108108 L7.94869565,4.39189189 L8.9013913,4.39189189 L8.9013913,9.83198198 L10.6173913,9.83198198 L10.6173913,4.39189189 L12.8326957,4.39189189 L12.8326957,7.8 C12.8326957,9.21711712 13.3664348,9.83198198 14.7553043,9.83198198 L15.6391304,9.83198198 L15.6391304,8.28603604 L15.3005217,8.28603604 Z" id="Path"></path>
                    <path d="M21.4643478,5.72702703 C21.3438261,4.82522523 20.6206957,4.28063063 19.7713043,4.28063063 C18.9276522,4.28063063 18.2274783,4.80765766 18.0553043,5.72702703 L21.4643478,5.72702703 Z M18.038087,6.81036036 C18.1586087,7.84099099 18.8817391,8.42657658 19.8,8.42657658 C20.5231304,8.42657658 21.0798261,8.08108108 21.4069565,7.52477477 L23.1688696,7.52477477 C22.7613913,9.00045045 21.4643478,9.94324324 19.7598261,9.94324324 C17.6994783,9.94324324 16.2532174,8.46756757 16.2532174,6.36531532 C16.2532174,4.26306306 17.7798261,2.7463964 19.8,2.7463964 C21.8316522,2.7463964 23.3066087,4.27477477 23.3066087,6.36531532 C23.3066087,6.51756757 23.2951304,6.66981982 23.2664348,6.81036036 L18.038087,6.81036036 L18.038087,6.81036036 Z" id="Shape"></path>
                    <path d="M34.233913,6.3536036 C34.233913,5.22927928 33.4017391,4.36261261 32.3801739,4.36261261 C31.3586087,4.36261261 30.5264348,5.2 30.5264348,6.3536036 C30.5264348,7.4954955 31.3586087,8.34459459 32.3801739,8.34459459 C33.4017391,8.34459459 34.233913,7.48378378 34.233913,6.3536036 M28.8333913,12.6720721 L28.8333913,2.87522523 L30.5092174,2.87522523 L30.5092174,3.77702703 C31.0142609,3.13873874 31.766087,2.7463964 32.6613913,2.7463964 C34.5036522,2.7463964 35.949913,4.29234234 35.949913,6.33603604 C35.949913,8.37972973 34.4749565,9.93738739 32.6212174,9.93738739 C31.7603478,9.93738739 31.0544348,9.59189189 30.5608696,9.00630631 L30.5608696,12.6662162 L28.8333913,12.6662162 L28.8333913,12.6720721 Z" id="Shape"></path>
                    <path d="M41.9932174,6.3536036 C41.9932174,5.18243243 41.1610435,4.36261261 40.1394783,4.36261261 C39.117913,4.36261261 38.2857391,5.2 38.2857391,6.3536036 C38.2857391,7.4954955 39.117913,8.34459459 40.1394783,8.34459459 C41.1610435,8.34459459 41.9932174,7.52477477 41.9932174,6.3536036 M42.0104348,9.83198198 L42.0104348,8.93018018 C41.5053913,9.55675676 40.7535652,9.94324324 39.8582609,9.94324324 C37.9873043,9.94324324 36.5697391,8.41486486 36.5697391,6.3536036 C36.5697391,4.30990991 38.0446957,2.75225225 39.8984348,2.75225225 C40.7707826,2.75225225 41.5053913,3.14459459 42.0104348,3.7536036 L42.0104348,2.87522523 L43.6862609,2.87522523 L43.6862609,9.83198198 L42.0104348,9.83198198 L42.0104348,9.83198198 Z" id="Shape"></path>
                    <path d="M25.8088696,3.5545045 C25.8088696,3.5545045 26.2335652,2.7463964 27.2838261,2.7463964 C27.7314783,2.7463964 28.0184348,2.9045045 28.0184348,2.9045045 L28.0184348,4.67882883 C28.0184348,4.67882883 27.3871304,4.28063063 26.8074783,4.36261261 C26.2278261,4.44459459 25.8605217,4.98333333 25.8605217,5.70945946 L25.8605217,9.82612613 L24.1273043,9.82612613 L24.1273043,2.87522523 L25.8031304,2.87522523 L25.8031304,3.5545045 L25.8088696,3.5545045 Z" id="Path"></path>
                </g>
            </g>
        </g>
    </g>
</svg>