<?xml version="1.0" encoding="utf-8"?>
<!-- Generator: Adobe Illustrator 24.0.3, SVG Export Plug-In . SVG Version: 6.00 Build 0)  -->
<svg version="1.1" id="Layer_1" xmlns="http://www.w3.org/2000/svg" xmlns:xlink="http://www.w3.org/1999/xlink" x="0px" y="0px"
	 viewBox="0 0 30.9 20" style="enable-background:new 0 0 30.9 20;" xml:space="preserve">
<style type="text/css">
	.st0{fill:#FFFFFF;}
</style>
<title>Artboard</title>
<desc>Created with Sketch.</desc>
<g>
	<path id="XMLID_4_" d="M28,0.3H3c-0.1,0-0.2,0-0.3,0c-0.1,0-0.2,0-0.3,0c-0.2,0-0.4,0-0.6,0.1c-0.2,0-0.4,0.1-0.5,0.2
		C1.1,0.6,0.9,0.7,0.8,0.8C0.7,1,0.5,1.1,0.5,1.3C0.4,1.5,0.3,1.6,0.3,1.8c0,0.2,0,0.4-0.1,0.6c0,0.1,0,0.2,0,0.3c0,0.1,0,0.2,0,0.3
		v14c0,0.1,0,0.2,0,0.3c0,0.1,0,0.2,0,0.3c0,0.2,0,0.4,0.1,0.6c0,0.2,0.1,0.4,0.2,0.5c0.1,0.2,0.2,0.3,0.3,0.5
		c0.1,0.1,0.3,0.2,0.5,0.3c0.2,0.1,0.4,0.1,0.5,0.2c0.2,0,0.4,0,0.6,0.1c0.1,0,0.2,0,0.3,0c0.1,0,0.2,0,0.3,0h25c0.1,0,0.2,0,0.3,0
		c0.1,0,0.2,0,0.3,0c0.2,0,0.4,0,0.6-0.1c0.2,0,0.4-0.1,0.5-0.2c0.2-0.1,0.3-0.2,0.5-0.3c0.1-0.1,0.2-0.3,0.3-0.5
		c0.1-0.2,0.1-0.4,0.2-0.5c0-0.2,0-0.4,0.1-0.6c0-0.1,0-0.2,0-0.3c0-0.1,0-0.2,0-0.3V3c0-0.1,0-0.2,0-0.3c0-0.1,0-0.2,0-0.3
		c0-0.2,0-0.4-0.1-0.6c0-0.2-0.1-0.4-0.2-0.5c-0.1-0.2-0.2-0.3-0.3-0.5c-0.1-0.1-0.3-0.2-0.5-0.3c-0.2-0.1-0.4-0.1-0.5-0.2
		c-0.2,0-0.4,0-0.6-0.1c-0.1,0-0.2,0-0.3,0C28.2,0.3,28.1,0.3,28,0.3L28,0.3z"/>
	<path id="XMLID_3_" class="st0" d="M28,0.9l0.3,0c0.1,0,0.2,0,0.3,0c0.1,0,0.3,0,0.5,0c0.1,0,0.3,0.1,0.4,0.1
		c0.1,0.1,0.2,0.1,0.3,0.2c0.1,0.1,0.2,0.2,0.2,0.3C29.9,1.7,30,1.8,30,1.9c0,0.2,0,0.3,0,0.5c0,0.1,0,0.2,0,0.3c0,0.1,0,0.2,0,0.3
		v14c0,0.1,0,0.2,0,0.3c0,0.1,0,0.2,0,0.2c0,0.1,0,0.3,0,0.5c0,0.1-0.1,0.3-0.1,0.4c-0.1,0.1-0.1,0.2-0.2,0.3
		c-0.1,0.1-0.2,0.2-0.3,0.2C29.2,19,29.1,19,29,19.1c-0.2,0-0.3,0-0.5,0c-0.1,0-0.2,0-0.3,0c-0.1,0-0.2,0-0.3,0H3c0,0,0,0,0,0
		c-0.1,0-0.2,0-0.3,0c-0.1,0-0.2,0-0.2,0c-0.1,0-0.3,0-0.5,0c-0.1,0-0.3-0.1-0.4-0.1c-0.1-0.1-0.2-0.1-0.3-0.2
		c-0.1-0.1-0.2-0.2-0.2-0.3c-0.1-0.1-0.1-0.2-0.1-0.4c0-0.2,0-0.3,0-0.5c0-0.1,0-0.2,0-0.2l0-0.2l0-0.1V3l0-0.1l0-0.2
		c0-0.1,0-0.2,0-0.2c0-0.1,0-0.3,0-0.5C0.9,1.8,1,1.7,1,1.6c0.1-0.1,0.1-0.2,0.2-0.3c0.1-0.1,0.2-0.2,0.3-0.2C1.7,1,1.8,1,1.9,0.9
		c0.2,0,0.3,0,0.5,0c0.1,0,0.2,0,0.2,0l0.3,0H28"/>
	<g>
		<g>
			<path d="M8.5,6.8C8.8,6.5,9,6,8.9,5.6c-0.4,0-0.8,0.3-1.1,0.6C7.6,6.5,7.4,6.9,7.4,7.3C7.8,7.4,8.3,7.1,8.5,6.8"/>
			<path d="M8.9,7.4c-0.6,0-1.2,0.4-1.4,0.4c-0.3,0-0.8-0.3-1.2-0.3C5.6,7.5,5,7.8,4.7,8.4C4,9.6,4.5,11.3,5.1,12.2
				c0.3,0.5,0.7,1,1.2,1c0.5,0,0.7-0.3,1.2-0.3c0.6,0,0.7,0.3,1.2,0.3c0.5,0,0.8-0.5,1.2-0.9c0.4-0.5,0.5-1,0.5-1.1c0,0-1-0.4-1-1.5
				c0-1,0.8-1.4,0.8-1.4C9.9,7.5,9.2,7.4,8.9,7.4"/>
		</g>
		<g>
			<path d="M14.3,6.1c1.4,0,2.3,0.9,2.3,2.3c0,1.4-1,2.3-2.3,2.3h-1.5v2.4h-1.1v-7H14.3z M12.8,9.8h1.2c0.9,0,1.5-0.5,1.5-1.4
				C15.5,7.5,15,7,14.1,7h-1.2V9.8z"/>
			<path d="M16.9,11.7c0-0.9,0.7-1.4,1.9-1.5l1.4-0.1V9.7c0-0.6-0.4-0.9-1-0.9c-0.6,0-1,0.3-1.1,0.7h-1c0.1-0.9,0.8-1.6,2.1-1.6
				c1.2,0,2,0.7,2,1.7v3.5h-1v-0.8h0c-0.3,0.6-0.9,0.9-1.6,0.9C17.6,13.2,16.9,12.6,16.9,11.7z M20.2,11.2v-0.4L19,10.9
				c-0.6,0-1,0.3-1,0.8c0,0.4,0.4,0.7,0.9,0.7C19.6,12.4,20.2,11.9,20.2,11.2z"/>
			<path d="M22.2,15v-0.8c0.1,0,0.3,0,0.3,0c0.5,0,0.7-0.2,0.9-0.7c0,0,0.1-0.3,0.1-0.3L21.7,8h1.1l1.3,4.1h0L25.4,8h1.1l-1.9,5.3
				c-0.4,1.2-0.9,1.6-2,1.6C22.5,15,22.3,15,22.2,15z"/>
		</g>
	</g>
</g>
</svg>
