<?xml version="1.0" encoding="utf-8"?>
<!-- Generator: Adobe Illustrator 26.1.0, SVG Export Plug-In . SVG Version: 6.00 Build 0)  -->
<svg version="1.1" id="Layer_1" xmlns="http://www.w3.org/2000/svg" xmlns:xlink="http://www.w3.org/1999/xlink" x="0px" y="0px"
	 viewBox="0 0 52.1 16" style="enable-background:new 0 0 52.1 16;" xml:space="preserve">
<style type="text/css">
	.st0{fill:#1AAD19;}
	.st1{fill:#4D4D4D;}
</style>
<g>
	<path class="st0" d="M7.1,10.1c-0.1,0-0.2,0.1-0.3,0.1c-0.2,0-0.4-0.1-0.5-0.3l0-0.1L4.7,6.2c0,0,0-0.1,0-0.1
		c0-0.2,0.1-0.3,0.3-0.3c0.1,0,0.1,0,0.2,0.1L7,7.2c0.1,0.1,0.3,0.1,0.5,0.1c0.1,0,0.2,0,0.3-0.1l8.9-4c-1.6-1.9-4.2-3.1-7.2-3.1
		c-4.9,0-8.9,3.3-8.9,7.4c0,2.2,1.2,4.2,3.1,5.6C3.9,13.3,4,13.4,4,13.6c0,0.1,0,0.1,0,0.2c-0.1,0.6-0.4,1.4-0.4,1.5
		c0,0.1,0,0.1,0,0.2c0,0.2,0.1,0.3,0.3,0.3c0.1,0,0.1,0,0.2-0.1l1.9-1.1c0.1-0.1,0.3-0.1,0.5-0.1c0.1,0,0.2,0,0.3,0
		c0.9,0.3,1.9,0.4,2.9,0.4c4.9,0,8.9-3.3,8.9-7.4c0-1.2-0.4-2.4-1-3.4L7.1,10.1L7.1,10.1z"/>
	<g>
		<g>
			<path class="st1" d="M25.6,12.6l-0.1,0.3c-0.1,0.3-0.1,0.5-0.2,0.7c-0.1-0.3-0.2-0.7-0.3-1.1l-0.6-2.3l0,0H24l-0.7,2.4
				c-0.1,0.4-0.2,0.8-0.3,1.1c-0.1-0.3-0.1-0.5-0.2-0.8l-0.7-2.6l0,0h-0.5l1.1,4.2l0,0h0.4l0.7-2.4c0.1-0.4,0.2-0.7,0.3-1
				c0.1,0.3,0.1,0.6,0.3,1l0.6,2.4l0,0h0.4l1.3-4.2l0-0.1h-0.5L25.6,12.6z"/>
			<path class="st1" d="M28.2,11.3c-0.8,0-1.4,0.7-1.4,1.7c0,0.9,0.6,1.6,1.4,1.6c0.5,0,0.9-0.1,1-0.2l0.1,0L29.1,14l0,0
				c-0.2,0.1-0.4,0.1-0.7,0.1c-0.6,0-1-0.4-1-1.1h2.1l0-0.1c0-0.1,0-0.1,0-0.2c0-0.1,0-0.5-0.2-0.9C29,11.5,28.7,11.3,28.2,11.3
				 M27.3,12.6c0.1-0.6,0.5-0.9,0.9-0.9c0.2,0,0.4,0.1,0.5,0.2c0.2,0.2,0.2,0.5,0.2,0.7H27.3z"/>
			<path class="st1" d="M32.9,14L32.9,14c-0.2,0.1-0.6,0.2-0.9,0.2c-1,0-1.7-0.7-1.7-1.8c0-1.1,0.6-1.8,1.7-1.8
				c0.3,0,0.6,0.1,0.8,0.2l0,0l0.2-0.4l-0.1,0c-0.1,0-0.4-0.2-1-0.2c-1.3,0-2.2,0.9-2.2,2.2c0,1.6,1.1,2.2,2,2.2
				c0.5,0,0.9-0.1,1.1-0.2l0.1,0L32.9,14L32.9,14z"/>
			<path class="st1" d="M35,11.3c-0.2,0-0.4,0.1-0.6,0.2c-0.1,0.1-0.2,0.1-0.3,0.2v-1.6h-0.5v4.3h0.5v-1.9c0-0.1,0-0.2,0-0.3
				c0.1-0.4,0.5-0.6,0.8-0.6c0.6,0,0.7,0.6,0.7,0.9v1.8h0.5v-1.8C36.1,11.4,35.2,11.3,35,11.3"/>
			<path class="st1" d="M40.2,10.7h-0.5v0.7h-0.5v0.4h0.5v1.8c0,0.4,0.1,0.6,0.2,0.8c0.1,0.2,0.3,0.2,0.6,0.2c0.2,0,0.3,0,0.4-0.1
				l0.1,0l-0.2-0.3l0,0c-0.1,0-0.2,0-0.2,0c-0.2,0-0.3-0.2-0.3-0.5v-1.8H41v-0.4h-0.8V10.7z"/>
			<path class="st1" d="M44,10.2c-0.3,0-0.6,0-0.9,0.1l-0.1,0v4.2h0.5v-1.7c0.1,0,0.3,0,0.4,0c0.5,0,1-0.2,1.3-0.5
				c0.2-0.2,0.3-0.5,0.3-0.9c0-0.4-0.1-0.7-0.3-0.9C44.9,10.3,44.5,10.2,44,10.2 M43.5,10.6c0.1,0,0.3,0,0.5,0c0.7,0,1,0.3,1,0.9
				c0,0.6-0.4,0.9-1.1,0.9c-0.1,0-0.3,0-0.4,0V10.6z"/>
			<path class="st1" d="M50.5,11.4l-0.7,2c-0.1,0.2-0.1,0.3-0.2,0.4c0-0.1-0.1-0.3-0.1-0.4l-0.8-1.9l0-0.1h-0.5l1.1,2.8
				c0,0.1,0,0.1,0,0.1c0,0,0,0.1,0,0.1c-0.1,0.3-0.3,0.6-0.5,0.7c-0.2,0.2-0.4,0.3-0.5,0.3l-0.1,0l0.3,0.4l0,0
				c0.1,0,0.2-0.1,0.4-0.3c0.4-0.3,0.6-0.9,1-1.8l0.9-2.2l0-0.1H50.5z"/>
			<path class="st1" d="M38.9,13.7v-1.1c0-0.8-0.4-1.2-1.1-1.2c-0.3,0-0.7,0.1-0.9,0.3l0,0l0.2,0.3l0,0c0.2-0.1,0.4-0.2,0.7-0.2h0
				c0.2,0,0.4,0.1,0.5,0.2c0.1,0.1,0.2,0.3,0.2,0.6c-0.7,0-1.2,0.2-1.5,0.4c-0.2,0.2-0.3,0.4-0.3,0.7c0,0.4,0.3,0.9,0.9,0.9
				c0.5,0,0.7-0.2,0.9-0.4l0,0.3h0.4l0-0.1C38.9,14.2,38.9,13.9,38.9,13.7 M37.3,13.2c0.2-0.2,0.6-0.3,1.1-0.3l0.1,0l0,0.6
				c0,0,0,0.1,0,0.2c-0.1,0.3-0.3,0.5-0.8,0.5c-0.2,0-0.5-0.1-0.5-0.5C37.1,13.4,37.1,13.3,37.3,13.2"/>
			<path class="st1" d="M47.8,13.7v-1.1c0-0.8-0.4-1.2-1.1-1.2c-0.3,0-0.6,0.1-0.9,0.2l0,0l0.2,0.3l0,0c0.2-0.1,0.4-0.2,0.6-0.2h0
				c0.2,0,0.4,0.1,0.5,0.2c0.1,0.1,0.2,0.3,0.2,0.6c-0.7,0-1.2,0.2-1.5,0.4c-0.2,0.2-0.3,0.4-0.3,0.7c0,0.4,0.3,0.9,0.9,0.9
				c0.5,0,0.7-0.2,0.9-0.4l0,0.3h0.4l0-0.1C47.8,14.2,47.8,13.9,47.8,13.7 M47.4,13.5c0,0,0,0.1,0,0.2c-0.1,0.3-0.3,0.5-0.8,0.5
				c-0.2,0-0.5-0.1-0.5-0.5c0-0.2,0.1-0.3,0.2-0.4c0.2-0.2,0.6-0.3,1.1-0.3l0.1,0L47.4,13.5z"/>
		</g>
		<g>
			<polygon class="st1" points="25.9,1.9 25.5,1.9 25.5,3.2 24.8,3.2 24.8,1.4 24.4,1.4 24.4,3.2 23.7,3.2 23.7,1.9 23.3,1.9 
				23.3,3.6 25.9,3.6 			"/>
			<rect x="23.5" y="4.3" class="st1" width="2.2" height="0.4"/>
			<rect x="31.9" y="3.4" class="st1" width="4.1" height="0.4"/>
			<rect x="31.9" y="4.6" class="st1" width="4.1" height="0.4"/>
			<path class="st1" d="M32.1,7.9h3.9V5.7h-3.9V7.9z M32.4,6.1h3.1v1.5h-3.1V6.1z"/>
			<path class="st1" d="M29.5,4.7l0.2,0.4c0.2-0.3,0.5-0.7,0.7-1.2v4.3h0.4V3.1c0.2-0.5,0.4-1,0.6-1.6l-0.4-0.2
				C30.7,2.6,30.2,3.7,29.5,4.7z"/>
			<path class="st1" d="M44.6,4.7l0.2,0.4c0.2-0.3,0.5-0.7,0.7-1.2v4.3h0.4V3.1c0.2-0.5,0.4-1,0.6-1.6l-0.4-0.2
				C45.8,2.6,45.2,3.7,44.6,4.7z"/>
			<path class="st1" d="M34.3,2.1L34.3,2.1L34.3,2.1c0-0.1-0.1-0.2-0.2-0.4C34.1,1.5,34,1.3,34,1.3l0,0l-0.4,0.2l0,0
				c0.1,0.2,0.2,0.5,0.3,0.7c0,0,0,0.1,0,0.1h-2.4v0.4h4.9V2.2h-2.4L34.3,2.1z"/>
			<path class="st1" d="M26.2,6.6L26,6.3l0,0l-0.5,0.5V5.4h-1.9l0,0.6c0.1,0.8-0.1,1.3-0.6,1.6l0,0L23.2,8l0,0
				C23.7,7.5,24,6.9,24,6.1V5.8H25v0.8c0,0.3,0,0.4-0.1,0.5l0,0l0.2,0.4l0,0C25.4,7.4,25.7,7.1,26.2,6.6L26.2,6.6z"/>
			<path class="st1" d="M21.8,3.5c0.6-0.6,1.1-1.3,1.4-2l0,0l-0.4-0.2l0,0C22.4,2,22,2.6,21.5,3.1l0,0L21.8,3.5L21.8,3.5z"/>
			<path class="st1" d="M23.2,3.4l-0.4-0.2l0,0C22.4,4,22,4.8,21.4,5.4l0,0l0.2,0.4l0,0l0,0c0.2-0.2,0.4-0.5,0.6-0.7v3.1h0.4V4.4
				C22.8,4.1,23,3.8,23.2,3.4L23.2,3.4z"/>
			<path class="st1" d="M27.3,1.3L27.3,1.3l-0.4,0l0,0c-0.2,1.1-0.6,2.1-1.1,2.8l0,0l0.3,0.5l0.2-0.4c0-0.1,0.1-0.2,0.1-0.2
				c0.1,1,0.3,1.7,0.6,2.3c-0.3,0.5-0.7,0.9-1.2,1.4l0,0l0.2,0.4l0,0l0,0c0.6-0.5,1-1,1.2-1.4c0.2,0.4,0.6,0.9,1.1,1.4l0,0l0.2-0.4
				l0,0l0,0c-0.5-0.5-0.9-1-1.1-1.4c0.4-0.8,0.7-1.9,0.8-3.3h0.4V2.6H27C27.1,2.2,27.2,1.7,27.3,1.3z M27.8,3
				c-0.1,1.2-0.3,2.1-0.6,2.8c-0.2-0.6-0.4-1.4-0.5-2.5c0-0.1,0.1-0.2,0.1-0.3H27.8z"/>
			<path class="st1" d="M50.3,3V1.3h-0.4V3h-3.3v0.4h3.3v3.7c0,0.4-0.2,0.6-0.7,0.6c-0.1,0-0.2,0-0.2,0l0,0v0.4h0c0.1,0,0.2,0,0.2,0
				c0,0,0.1,0,0.1,0c0.4,0,0.6-0.1,0.8-0.3c0.2-0.2,0.2-0.4,0.2-0.7V3.4h1.1V3H50.3z"/>
			<path class="st1" d="M47.8,4.4L47.8,4.4l-0.4,0.2l0,0c0.2,0.5,0.5,1,0.8,1.7l0,0l0.4-0.3l0,0C48.4,5.7,48.2,5.1,47.8,4.4z"/>
			<path class="st1" d="M41,1.2h-0.4v1h-3.1v0.4h3.1v1.3h-2l0,0.3l0,0c0,0,0,0,0,0c0.1,0.3,0.6,1.4,1.8,2.4
				c-0.7,0.5-1.6,0.8-2.8,1.1l0,0l0.3,0.4l0,0c1.1-0.3,2.1-0.7,2.9-1.2c0.8,0.5,1.8,1,2.9,1.2l0,0l0.2-0.4l0,0
				c-1.1-0.3-2-0.6-2.7-1.1c1.2-1,1.7-2,1.9-2.4C43,4.2,43,4.1,43,4.1l0,0l-0.3-0.2H41V2.6h3.1V2.2H41V1.2z M42.5,4.3
				c-0.1,0.2-0.3,0.7-0.7,1.2c-0.2,0.3-0.5,0.6-1,0.9c-1.1-0.8-1.6-1.7-1.7-2.1H42.5z"/>
		</g>
	</g>
</g>
</svg>
